<svg width="130" height="52" viewBox="0 0 130 52" fill="none" xmlns="http://www.w3.org/2000/svg">
<path d="M62.2786 6.46801C62.2786 5.87193 62.4734 5.37902 62.8746 4.98927C63.2758 4.59953 63.8261 4.40466 64.5139 4.40466C65.1902 4.40466 65.7404 4.59953 66.1416 4.98927C66.5428 5.37902 66.7491 5.87193 66.7491 6.46801C66.7491 7.07555 66.5428 7.56846 66.1301 7.9582C65.7175 8.34794 65.1787 8.54281 64.5024 8.54281C63.8261 8.54281 63.2873 8.34794 62.8746 7.9582C62.4849 7.57992 62.2786 7.07555 62.2786 6.46801ZM66.5199 25.2788H62.5193V10.331H66.5199V25.2788Z" fill="white"/>
<path d="M68.801 17.7018C68.801 15.4092 69.3513 13.5636 70.4402 12.1651C71.5292 10.7666 72.9965 10.0674 74.8535 10.0674C76.4927 10.0674 77.7651 10.6291 78.6821 11.7524L78.8426 10.3425H82.4649V24.7859C82.4649 26.0927 82.1669 27.2275 81.5708 28.2019C80.9748 29.1648 80.138 29.9099 79.0604 30.4142C77.9829 30.9186 76.722 31.1708 75.2776 31.1708C74.1772 31.1708 73.1111 30.953 72.0794 30.5174C71.0363 30.0818 70.2568 29.5201 69.7181 28.8209L71.4834 26.3907C72.4807 27.5026 73.6843 28.0643 75.1057 28.0643C76.1603 28.0643 76.9856 27.7778 77.5817 27.2161C78.1663 26.6544 78.4643 25.852 78.4643 24.8088V24.0064C77.5473 25.0496 76.3322 25.5654 74.8306 25.5654C73.0309 25.5654 71.5865 24.8661 70.4746 23.4562C69.3627 22.0577 68.8125 20.1892 68.8125 17.8737V17.7018H68.801ZM72.7902 17.9883C72.7902 19.341 73.0653 20.407 73.604 21.175C74.1428 21.9431 74.8879 22.3328 75.8393 22.3328C77.0544 22.3328 77.9256 21.8743 78.4529 20.9687V14.6755C77.9141 13.7585 77.0544 13.3114 75.8737 13.3114C74.9108 13.3114 74.1657 13.7012 73.6155 14.4921C73.0653 15.2601 72.7902 16.4408 72.7902 17.9883Z" fill="white"/>
<path d="M88.7697 10.3311L88.8957 12.0621C89.9618 10.7323 91.3947 10.056 93.1944 10.056C94.7763 10.056 95.957 10.526 96.725 11.4545C97.493 12.383 97.8942 13.7701 97.9171 15.6271V25.2789H93.928V15.7188C93.928 14.8705 93.7446 14.263 93.3778 13.8732C93.011 13.4949 92.392 13.3001 91.5437 13.3001C90.4203 13.3001 89.5835 13.7815 89.0218 14.7329V25.2675H85.0327V10.3311H88.7697Z" fill="white"/>
<path d="M100.485 6.46801C100.485 5.87193 100.68 5.37902 101.081 4.98927C101.482 4.59953 102.032 4.40466 102.72 4.40466C103.396 4.40466 103.947 4.59953 104.348 4.98927C104.749 5.37902 104.955 5.87193 104.955 6.46801C104.955 7.07555 104.749 7.56846 104.336 7.9582C103.924 8.34794 103.385 8.54281 102.709 8.54281C102.032 8.54281 101.494 8.34794 101.081 7.9582C100.691 7.57992 100.485 7.07555 100.485 6.46801ZM104.726 25.2788H100.726V10.331H104.726V25.2788Z" fill="white"/>
<path d="M112.372 6.66284V10.331H114.928V13.2541H112.372V20.7165C112.372 21.2667 112.475 21.6679 112.693 21.9087C112.899 22.1494 113.312 22.264 113.908 22.264C114.355 22.264 114.745 22.2296 115.077 22.1723V25.1986C114.298 25.4393 113.484 25.5539 112.659 25.5539C109.862 25.5539 108.429 24.144 108.383 21.3126V13.2655H106.205V10.3425H108.383V6.67431H112.372V6.66284Z" fill="white"/>
<path d="M123.594 25.554C121.405 25.554 119.617 24.8777 118.241 23.5365C116.866 22.1954 116.178 20.4071 116.178 18.1604V17.7706C116.178 16.269 116.464 14.9278 117.049 13.7471C117.634 12.5664 118.448 11.6494 119.514 11.0075C120.58 10.3655 121.795 10.0446 123.147 10.0446C125.188 10.0446 126.804 10.6865 127.973 11.9818C129.143 13.2657 129.739 15.0998 129.739 17.4611V19.0889H120.224C120.35 20.0632 120.74 20.8427 121.394 21.4388C122.047 22.0234 122.861 22.3214 123.858 22.3214C125.394 22.3214 126.598 21.7598 127.457 20.6478L129.418 22.8488C128.822 23.697 128.008 24.3619 126.987 24.8319C125.979 25.3133 124.844 25.554 123.594 25.554ZM123.147 13.2771C122.356 13.2771 121.714 13.5408 121.222 14.0795C120.729 14.6183 120.419 15.3863 120.27 16.3836H125.818V16.0626C125.795 15.18 125.566 14.4922 125.096 13.9993C124.638 13.5179 123.984 13.2771 123.147 13.2771Z" fill="white"/>
<path opacity="0.5" d="M52.0157 0.35129L39.286 47.8829C39.2212 48.0986 38.9623 48.1634 38.8113 48.0123L30.2888 39.4899L36.6753 15.6701C36.74 15.4544 36.5458 15.2602 36.3301 15.3249L12.5103 21.7114L4.03104 13.2321C3.88001 13.081 3.94474 12.8221 4.1605 12.7574L51.6705 0.00607603C51.8863 -0.0370757 52.0804 0.157107 52.0157 0.35129Z" fill="#00B37E"/>
<path opacity="0.5" d="M30.2885 39.4899L27.009 51.7881C26.9442 52.0039 26.6853 52.0686 26.5343 51.9176L0.0823113 25.4872C-0.0687196 25.3362 -0.00399244 25.0773 0.211766 25.0125L12.51 21.7114L30.2885 39.4899Z" fill="#00B37E"/>
<path d="M36.6752 15.67L30.2887 39.4897L12.5103 21.7112L36.33 15.3248C36.5457 15.2601 36.7399 15.4542 36.6752 15.67Z" fill="#00B37E"/>
<path d="M67.622 45.6313C67.622 45.4246 67.576 45.2333 67.4839 45.0575C67.3969 44.8766 67.2153 44.7138 66.939 44.5691C66.6678 44.4191 66.2585 44.2899 65.711 44.1814C65.2505 44.0831 64.8335 43.9668 64.46 43.8324C64.0916 43.698 63.777 43.5352 63.516 43.3439C63.2602 43.1527 63.0632 42.9278 62.9251 42.6694C62.7869 42.4109 62.7179 42.1085 62.7179 41.7622C62.7179 41.4313 62.7895 41.1186 62.9328 40.8239C63.0811 40.5293 63.2884 40.2683 63.5544 40.0408C63.8256 39.8134 64.1505 39.635 64.5291 39.5058C64.9077 39.3766 65.3298 39.3119 65.7954 39.3119C66.4606 39.3119 67.0285 39.4308 67.4992 39.6686C67.97 39.9064 68.3307 40.2243 68.5814 40.6223C68.8321 41.0152 68.9574 41.452 68.9574 41.9327H67.5376C67.5376 41.7001 67.4685 41.4753 67.3304 41.2582C67.1974 41.0359 67.0004 40.8524 66.7394 40.7076C66.4836 40.5629 66.1689 40.4905 65.7954 40.4905C65.4015 40.4905 65.0817 40.5526 64.8361 40.6766C64.5956 40.7955 64.4191 40.948 64.3065 41.1341C64.1991 41.3202 64.1454 41.5166 64.1454 41.7234C64.1454 41.8785 64.171 42.018 64.2221 42.1421C64.2784 42.261 64.3756 42.3721 64.5138 42.4755C64.6519 42.5737 64.8463 42.6668 65.097 42.7547C65.3477 42.8425 65.6675 42.9304 66.0564 43.0183C66.7369 43.1734 67.2971 43.3595 67.7372 43.5766C68.1772 43.7937 68.5046 44.0599 68.7195 44.3752C68.9344 44.6905 69.0419 45.0731 69.0419 45.5228C69.0419 45.8898 68.9651 46.2258 68.8116 46.5308C68.6632 46.8358 68.4458 47.0994 68.1593 47.3217C67.8779 47.5388 67.5402 47.7094 67.1462 47.8334C66.7573 47.9523 66.3199 48.0118 65.8338 48.0118C65.1022 48.0118 64.4831 47.8799 63.9765 47.6163C63.47 47.3527 63.0863 47.0115 62.8253 46.5928C62.5644 46.1741 62.4339 45.7321 62.4339 45.2669H63.8614C63.8819 45.6598 63.9944 45.9725 64.1991 46.2051C64.4038 46.4326 64.6545 46.5954 64.9512 46.6936C65.248 46.7866 65.5422 46.8332 65.8338 46.8332C66.2227 46.8332 66.5476 46.7815 66.8085 46.6781C67.0746 46.5747 67.2767 46.4326 67.4148 46.2516C67.553 46.0707 67.622 45.8639 67.622 45.6313Z" fill="white"/>
<path d="M72.3267 35.9468V47.8567H70.9068V35.9468H72.3267ZM71.989 43.3439L71.398 43.3207C71.4031 42.7469 71.4876 42.2171 71.6513 41.7311C71.815 41.2401 72.0453 40.8136 72.342 40.4518C72.6388 40.0899 72.9918 39.8108 73.4011 39.6143C73.8156 39.4127 74.2735 39.3119 74.7749 39.3119C75.1842 39.3119 75.5526 39.3688 75.8801 39.4825C76.2075 39.5911 76.4864 39.7668 76.7166 40.0098C76.952 40.2527 77.1311 40.5681 77.2539 40.9558C77.3767 41.3383 77.4381 41.8061 77.4381 42.3592V47.8567H76.0105V42.3437C76.0105 41.9043 75.9466 41.5528 75.8187 41.2892C75.6908 41.0204 75.504 40.8265 75.2584 40.7076C75.0128 40.5836 74.711 40.5215 74.3528 40.5215C73.9998 40.5215 73.6774 40.5965 73.3858 40.7464C73.0993 40.8963 72.8511 41.1031 72.6413 41.3667C72.4367 41.6303 72.2755 41.9327 72.1578 42.2739C72.0453 42.6099 71.989 42.9666 71.989 43.3439Z" fill="white"/>
<path d="M79.1879 43.7549V43.5766C79.1879 42.9718 79.2749 42.4109 79.4488 41.894C79.6228 41.3719 79.8735 40.9196 80.201 40.5371C80.5284 40.1494 80.925 39.8495 81.3906 39.6376C81.8562 39.4205 82.378 39.3119 82.9562 39.3119C83.5395 39.3119 84.0639 39.4205 84.5295 39.6376C85.0002 39.8495 85.3993 40.1494 85.7268 40.5371C86.0594 40.9196 86.3126 41.3719 86.4866 41.894C86.6606 42.4109 86.7475 42.9718 86.7475 43.5766V43.7549C86.7475 44.3597 86.6606 44.9206 86.4866 45.4375C86.3126 45.9544 86.0594 46.4067 85.7268 46.7944C85.3993 47.1769 85.0028 47.4767 84.5372 47.6938C84.0767 47.9058 83.5548 48.0118 82.9716 48.0118C82.3883 48.0118 81.8638 47.9058 81.3982 47.6938C80.9326 47.4767 80.5335 47.1769 80.201 46.7944C79.8735 46.4067 79.6228 45.9544 79.4488 45.4375C79.2749 44.9206 79.1879 44.3597 79.1879 43.7549ZM80.6077 43.5766V43.7549C80.6077 44.1736 80.6563 44.5691 80.7535 44.9412C80.8508 45.3083 80.9966 45.6339 81.191 45.9182C81.3906 46.2025 81.6387 46.4274 81.9355 46.5928C82.2322 46.753 82.5776 46.8332 82.9716 46.8332C83.3604 46.8332 83.7007 46.753 83.9923 46.5928C84.2891 46.4274 84.5346 46.2025 84.7291 45.9182C84.9235 45.6339 85.0693 45.3083 85.1665 44.9412C85.2689 44.5691 85.32 44.1736 85.32 43.7549V43.5766C85.32 43.163 85.2689 42.7727 85.1665 42.4057C85.0693 42.0335 84.9209 41.7053 84.7214 41.421C84.527 41.1315 84.2814 40.9041 83.9846 40.7387C83.693 40.5732 83.3502 40.4905 82.9562 40.4905C82.5674 40.4905 82.2245 40.5732 81.9278 40.7387C81.6361 40.9041 81.3906 41.1315 81.191 41.421C80.9966 41.7053 80.8508 42.0335 80.7535 42.4057C80.6563 42.7727 80.6077 43.163 80.6077 43.5766Z" fill="white"/>
<path d="M89.9479 41.0798V51.0823H88.5204V39.467H89.8251L89.9479 41.0798ZM95.5428 43.5921V43.7549C95.5428 44.3649 95.4712 44.9309 95.3279 45.453C95.1847 45.9699 94.9749 46.4196 94.6986 46.8022C94.4274 47.1847 94.0923 47.4819 93.6932 47.6938C93.2941 47.9058 92.8362 48.0118 92.3194 48.0118C91.7924 48.0118 91.3268 47.9239 90.9226 47.7481C90.5184 47.5724 90.1756 47.3165 89.8942 46.9805C89.6128 46.6445 89.3877 46.2413 89.2188 45.7709C89.0551 45.3005 88.9425 44.7707 88.8811 44.1814V43.3129C88.9425 42.6926 89.0576 42.1369 89.2265 41.6459C89.3953 41.1548 89.6179 40.7361 89.8942 40.3897C90.1756 40.0382 90.5158 39.772 90.9149 39.5911C91.314 39.405 91.7745 39.3119 92.2964 39.3119C92.8183 39.3119 93.2813 39.4153 93.6855 39.6221C94.0897 39.8237 94.43 40.1132 94.7063 40.4905C94.9826 40.8679 95.1898 41.3202 95.3279 41.8475C95.4712 42.3695 95.5428 42.9511 95.5428 43.5921ZM94.1153 43.7549V43.5921C94.1153 43.1734 94.0718 42.7805 93.9848 42.4135C93.8979 42.0413 93.7623 41.7156 93.5781 41.4365C93.399 41.1522 93.1687 40.9299 92.8873 40.7697C92.6059 40.6043 92.2708 40.5215 91.8819 40.5215C91.5238 40.5215 91.2117 40.5836 90.9456 40.7076C90.6847 40.8317 90.4621 40.9997 90.2779 41.2116C90.0937 41.4184 89.9428 41.6562 89.8251 41.925C89.7125 42.1886 89.6281 42.4626 89.5718 42.7469V44.7551C89.6742 45.117 89.8174 45.4582 90.0016 45.7787C90.1858 46.094 90.4314 46.3498 90.7384 46.5463C91.0454 46.7375 91.4317 46.8332 91.8973 46.8332C92.281 46.8332 92.611 46.753 92.8873 46.5928C93.1687 46.4274 93.399 46.2025 93.5781 45.9182C93.7623 45.6339 93.8979 45.3083 93.9848 44.9412C94.0718 44.5691 94.1153 44.1736 94.1153 43.7549Z" fill="white"/>
</svg>
