<svg width="26" height="30" viewBox="0 0 26 30" fill="none" xmlns="http://www.w3.org/2000/svg">
<path d="M25.7375 7.84982C25.7342 7.84982 25.731 7.84851 25.7287 7.84616C25.7263 7.84382 25.725 7.84064 25.725 7.83732C25.5443 7.52972 25.2856 7.2753 24.975 7.09982L13.975 0.912323C13.677 0.745926 13.3413 0.658569 13 0.658569C12.6587 0.658569 12.323 0.745926 12.025 0.912323L1.02501 7.09982C0.714411 7.2753 0.455682 7.52972 0.275009 7.83732C0.275009 7.84064 0.273692 7.84382 0.271348 7.84616C0.269003 7.84851 0.265824 7.84982 0.262509 7.84982V7.87482C0.0896932 8.16606 -0.00101803 8.49867 8.61866e-06 8.83732V21.1623C0.000640629 21.5186 0.0958658 21.8684 0.275953 22.1759C0.456039 22.4833 0.71453 22.7375 1.02501 22.9123L12.025 29.0998C12.3019 29.2509 12.6098 29.3364 12.925 29.3498H13.1C13.4072 29.3362 13.707 29.2506 13.975 29.0998L24.975 22.9123C25.2855 22.7375 25.544 22.4833 25.7241 22.1759C25.9042 21.8684 25.9994 21.5186 26 21.1623V8.83732C26.0018 8.49068 25.9112 8.14981 25.7375 7.84982ZM13 2.64982L22.9625 8.24982L19.1375 10.4248L9.05001 4.86232L13 2.64982ZM13.1125 13.8498L3.05001 8.24982L7.00001 6.02482L17.1 11.5873L13.1125 13.8498ZM14.0125 26.7873L14.1125 15.5873L18.125 13.2998V18.0623C18.125 18.3275 18.2304 18.5819 18.4179 18.7694C18.6054 18.957 18.8598 19.0623 19.125 19.0623C19.3902 19.0623 19.6446 18.957 19.8321 18.7694C20.0197 18.5819 20.125 18.3275 20.125 18.0623V12.1623L24 9.96232V21.1623L14.0125 26.7873Z" fill="#574F4D"/>
</svg>
