<svg width="68" height="58" viewBox="0 0 68 58" fill="none" xmlns="http://www.w3.org/2000/svg">
<rect x="0.714279" width="66.8571" height="58" rx="6" fill="#323238"/>
<path d="M33.5413 32.8125V34H26.096V32.9609L29.8225 28.8125C30.2809 28.3021 30.635 27.8698 30.885 27.5156C31.1402 27.1562 31.3173 26.8359 31.4163 26.5547C31.5205 26.2682 31.5725 25.9766 31.5725 25.6797C31.5725 25.3047 31.4944 24.9661 31.3382 24.6641C31.1871 24.3568 30.9632 24.112 30.6663 23.9297C30.3694 23.7474 30.01 23.6562 29.5882 23.6562C29.083 23.6562 28.6611 23.7552 28.3225 23.9531C27.9892 24.1458 27.7392 24.4167 27.5725 24.7656C27.4059 25.1146 27.3225 25.5156 27.3225 25.9688H25.8772C25.8772 25.3281 26.0179 24.7422 26.2991 24.2109C26.5804 23.6797 26.997 23.2578 27.5491 22.9453C28.1012 22.6276 28.7809 22.4688 29.5882 22.4688C30.3069 22.4688 30.9215 22.5964 31.4319 22.8516C31.9423 23.1016 32.333 23.4557 32.6038 23.9141C32.8798 24.3672 33.0179 24.8984 33.0179 25.5078C33.0179 25.8411 32.9606 26.1797 32.846 26.5234C32.7366 26.862 32.583 27.2005 32.385 27.5391C32.1923 27.8776 31.9658 28.2109 31.7054 28.5391C31.4501 28.8672 31.1767 29.1901 30.885 29.5078L27.8382 32.8125H33.5413ZM42.4397 22.625V23.4375L37.7288 34H36.2054L40.9085 23.8125H34.7522V22.625H42.4397Z" fill="white"/>
</svg>
